%TF.GenerationSoftware,KiCad,Pcbnew,(5.1.10-1-10_14)*%
%TF.CreationDate,2021-10-09T23:48:43+01:00*%
%TF.ProjectId,architeuthis_dux,61726368-6974-4657-9574-6869735f6475,VERSION_HERE*%
%TF.SameCoordinates,Original*%
%TF.FileFunction,Soldermask,Bot*%
%TF.FilePolarity,Negative*%
%FSLAX46Y46*%
G04 Gerber Fmt 4.6, Leading zero omitted, Abs format (unit mm)*
G04 Created by KiCad (PCBNEW (5.1.10-1-10_14)) date 2021-10-09 23:48:43*
%MOMM*%
%LPD*%
G01*
G04 APERTURE LIST*
%ADD10C,1.600000*%
%ADD11C,1.000000*%
%ADD12C,3.529000*%
%ADD13C,1.801800*%
%ADD14C,3.100000*%
%ADD15C,2.132000*%
%ADD16C,1.852600*%
G04 APERTURE END LIST*
%TO.C, *%
G36*
G01*
X109686949Y2458075D02*
X111382808Y2339489D01*
G75*
G02*
X111429198Y2286123I-3488J-49878D01*
G01*
X111366417Y1388315D01*
G75*
G02*
X111313051Y1341925I-49878J3488D01*
G01*
X109617192Y1460511D01*
G75*
G02*
X109570802Y1513877I3488J49878D01*
G01*
X109633583Y2411685D01*
G75*
G02*
X109686949Y2458075I49878J-3488D01*
G01*
G37*
G36*
G01*
X109449777Y-933643D02*
X111145636Y-1052229D01*
G75*
G02*
X111192026Y-1105595I-3488J-49878D01*
G01*
X111129245Y-2003403D01*
G75*
G02*
X111075879Y-2049793I-49878J3488D01*
G01*
X109380020Y-1931207D01*
G75*
G02*
X109333630Y-1877841I3488J49878D01*
G01*
X109396411Y-980033D01*
G75*
G02*
X109449777Y-933643I49878J-3488D01*
G01*
G37*
%TD*%
%TO.C,REF\u002A\u002A*%
G36*
G01*
X103885020Y37485604D02*
X103989655Y38981950D01*
G75*
G02*
X104043021Y39028340I49878J-3488D01*
G01*
X104741316Y38979510D01*
G75*
G02*
X104787706Y38926144I-3488J-49878D01*
G01*
X104683071Y37429798D01*
G75*
G02*
X104629705Y37383408I-49878J3488D01*
G01*
X103931410Y37432238D01*
G75*
G02*
X103885020Y37485604I3488J49878D01*
G01*
G37*
G36*
G01*
X106877712Y37276335D02*
X106982347Y38772681D01*
G75*
G02*
X107035713Y38819071I49878J-3488D01*
G01*
X107734008Y38770241D01*
G75*
G02*
X107780398Y38716875I-3488J-49878D01*
G01*
X107675763Y37220529D01*
G75*
G02*
X107622397Y37174139I-49878J3488D01*
G01*
X106924102Y37222969D01*
G75*
G02*
X106877712Y37276335I3488J49878D01*
G01*
G37*
G36*
G01*
X108374058Y37171700D02*
X108478693Y38668046D01*
G75*
G02*
X108532059Y38714436I49878J-3488D01*
G01*
X109230354Y38665606D01*
G75*
G02*
X109276744Y38612240I-3488J-49878D01*
G01*
X109172109Y37115894D01*
G75*
G02*
X109118743Y37069504I-49878J3488D01*
G01*
X108420448Y37118334D01*
G75*
G02*
X108374058Y37171700I3488J49878D01*
G01*
G37*
G36*
G01*
X102562714Y40795908D02*
X102618520Y41593959D01*
G75*
G02*
X102671886Y41640349I49878J-3488D01*
G01*
X103669450Y41570592D01*
G75*
G02*
X103715840Y41517226I-3488J-49878D01*
G01*
X103660034Y40719175D01*
G75*
G02*
X103606668Y40672785I-49878J3488D01*
G01*
X102609104Y40742542D01*
G75*
G02*
X102562714Y40795908I3488J49878D01*
G01*
G37*
G36*
G01*
X109844932Y40286685D02*
X109900738Y41084736D01*
G75*
G02*
X109954104Y41131126I49878J-3488D01*
G01*
X110951668Y41061369D01*
G75*
G02*
X110998058Y41008003I-3488J-49878D01*
G01*
X110942252Y40209952D01*
G75*
G02*
X110888886Y40163562I-49878J3488D01*
G01*
X109891322Y40233319D01*
G75*
G02*
X109844932Y40286685I3488J49878D01*
G01*
G37*
G36*
G01*
X109690770Y38082069D02*
X109746576Y38880120D01*
G75*
G02*
X109799942Y38926510I49878J-3488D01*
G01*
X110797506Y38856753D01*
G75*
G02*
X110843896Y38803387I-3488J-49878D01*
G01*
X110788090Y38005336D01*
G75*
G02*
X110734724Y37958946I-49878J3488D01*
G01*
X109737160Y38028703D01*
G75*
G02*
X109690770Y38082069I3488J49878D01*
G01*
G37*
G36*
G01*
X102408552Y38591291D02*
X102464358Y39389342D01*
G75*
G02*
X102517724Y39435732I49878J-3488D01*
G01*
X103515288Y39365975D01*
G75*
G02*
X103561678Y39312609I-3488J-49878D01*
G01*
X103505872Y38514558D01*
G75*
G02*
X103452506Y38468168I-49878J3488D01*
G01*
X102454942Y38537925D01*
G75*
G02*
X102408552Y38591291I3488J49878D01*
G01*
G37*
%TD*%
D10*
%TO.C,-*%
X112200000Y39950000D03*
%TD*%
%TO.C,+*%
X100900000Y40750000D03*
%TD*%
D11*
%TO.C,REF\u002A\u002A*%
X105176674Y39933831D03*
X108169366Y39724561D03*
%TD*%
D12*
%TO.C,S1*%
X13202636Y-1053449D03*
D13*
X18515228Y370056D03*
X7890044Y-2476954D03*
D14*
X17061694Y3862868D03*
X11662663Y4693810D03*
G36*
G01*
X7531721Y2241068D02*
X6858792Y4752475D01*
G75*
G02*
X6894147Y4813712I48296J12941D01*
G01*
X9405554Y5486641D01*
G75*
G02*
X9466791Y5451286I12941J-48296D01*
G01*
X10139720Y2939879D01*
G75*
G02*
X10104365Y2878642I-48296J-12941D01*
G01*
X7592958Y2205713D01*
G75*
G02*
X7531721Y2241068I-12941J48296D01*
G01*
G37*
G36*
G01*
X19257566Y3105391D02*
X18584637Y5616798D01*
G75*
G02*
X18619992Y5678035I48296J12941D01*
G01*
X21131399Y6350964D01*
G75*
G02*
X21192636Y6315609I12941J-48296D01*
G01*
X21865565Y3804202D01*
G75*
G02*
X21830210Y3742965I-48296J-12941D01*
G01*
X19318803Y3070036D01*
G75*
G02*
X19257566Y3105391I-12941J48296D01*
G01*
G37*
X7402435Y1274678D03*
X11662663Y4693810D03*
%TD*%
D12*
%TO.C,S2*%
X13202636Y-1053449D03*
D13*
X7890044Y-2476954D03*
X18515228Y370056D03*
D15*
X9356519Y-6018062D03*
X14729668Y-6752411D03*
X19015778Y-3429872D03*
X14729668Y-6752411D03*
%TD*%
D12*
%TO.C,S3*%
X8802735Y15367351D03*
D13*
X14115327Y16790856D03*
X3490143Y13943846D03*
D14*
X12661793Y20283668D03*
X7262762Y21114610D03*
G36*
G01*
X3131820Y18661868D02*
X2458891Y21173275D01*
G75*
G02*
X2494246Y21234512I48296J12941D01*
G01*
X5005653Y21907441D01*
G75*
G02*
X5066890Y21872086I12941J-48296D01*
G01*
X5739819Y19360679D01*
G75*
G02*
X5704464Y19299442I-48296J-12941D01*
G01*
X3193057Y18626513D01*
G75*
G02*
X3131820Y18661868I-12941J48296D01*
G01*
G37*
G36*
G01*
X14857665Y19526191D02*
X14184736Y22037598D01*
G75*
G02*
X14220091Y22098835I48296J12941D01*
G01*
X16731498Y22771764D01*
G75*
G02*
X16792735Y22736409I12941J-48296D01*
G01*
X17465664Y20225002D01*
G75*
G02*
X17430309Y20163765I-48296J-12941D01*
G01*
X14918902Y19490836D01*
G75*
G02*
X14857665Y19526191I-12941J48296D01*
G01*
G37*
X3002534Y17695478D03*
X7262762Y21114610D03*
%TD*%
D12*
%TO.C,S4*%
X8802735Y15367351D03*
D13*
X3490143Y13943846D03*
X14115327Y16790856D03*
D15*
X4956618Y10402738D03*
X10329767Y9668389D03*
X14615877Y12990928D03*
X10329767Y9668389D03*
%TD*%
D12*
%TO.C,S5*%
X4402735Y31788051D03*
D13*
X9715327Y33211556D03*
X-909857Y30364546D03*
D14*
X8261793Y36704368D03*
X2862762Y37535310D03*
G36*
G01*
X-1268180Y35082568D02*
X-1941109Y37593975D01*
G75*
G02*
X-1905754Y37655212I48296J12941D01*
G01*
X605653Y38328141D01*
G75*
G02*
X666890Y38292786I12941J-48296D01*
G01*
X1339819Y35781379D01*
G75*
G02*
X1304464Y35720142I-48296J-12941D01*
G01*
X-1206943Y35047213D01*
G75*
G02*
X-1268180Y35082568I-12941J48296D01*
G01*
G37*
G36*
G01*
X10457665Y35946891D02*
X9784736Y38458298D01*
G75*
G02*
X9820091Y38519535I48296J12941D01*
G01*
X12331498Y39192464D01*
G75*
G02*
X12392735Y39157109I12941J-48296D01*
G01*
X13065664Y36645702D01*
G75*
G02*
X13030309Y36584465I-48296J-12941D01*
G01*
X10518902Y35911536D01*
G75*
G02*
X10457665Y35946891I-12941J48296D01*
G01*
G37*
X-1397466Y34116178D03*
X2862762Y37535310D03*
%TD*%
D12*
%TO.C,S6*%
X4402735Y31788051D03*
D13*
X-909857Y30364546D03*
X9715327Y33211556D03*
D15*
X556618Y26823438D03*
X5929767Y26089089D03*
X10215877Y29411628D03*
X5929767Y26089089D03*
%TD*%
D12*
%TO.C,S7*%
X29107636Y20540652D03*
D13*
X34586707Y21020009D03*
X23628565Y20061295D03*
D14*
X33761775Y24712161D03*
X28589059Y26468010D03*
G36*
G01*
X24094961Y24769861D02*
X23868356Y27359968D01*
G75*
G02*
X23913808Y27414136I49810J4358D01*
G01*
X26503915Y27640741D01*
G75*
G02*
X26558083Y27595289I4358J-49810D01*
G01*
X26784688Y25005182D01*
G75*
G02*
X26739236Y24951014I-49810J-4358D01*
G01*
X24149129Y24724409D01*
G75*
G02*
X24094961Y24769861I-4358J49810D01*
G01*
G37*
G36*
G01*
X35792752Y23584882D02*
X35566147Y26174989D01*
G75*
G02*
X35611599Y26229157I49810J4358D01*
G01*
X38201706Y26455762D01*
G75*
G02*
X38255874Y26410310I4358J-49810D01*
G01*
X38482479Y23820203D01*
G75*
G02*
X38437027Y23766035I-49810J-4358D01*
G01*
X35846920Y23539430D01*
G75*
G02*
X35792752Y23584882I-4358J49810D01*
G01*
G37*
X23799828Y23840603D03*
X28589059Y26468010D03*
%TD*%
D12*
%TO.C,S8*%
X29107636Y20540652D03*
D13*
X23628565Y20061295D03*
X34586707Y21020009D03*
D15*
X24457854Y16319333D03*
X29621855Y14663103D03*
X34419801Y17190891D03*
X29621855Y14663103D03*
%TD*%
D12*
%TO.C,S9*%
X27625935Y37475951D03*
D13*
X33105006Y37955308D03*
X22146864Y36996594D03*
D14*
X32280074Y41647460D03*
X27107358Y43403309D03*
G36*
G01*
X22613260Y41705160D02*
X22386655Y44295267D01*
G75*
G02*
X22432107Y44349435I49810J4358D01*
G01*
X25022214Y44576040D01*
G75*
G02*
X25076382Y44530588I4358J-49810D01*
G01*
X25302987Y41940481D01*
G75*
G02*
X25257535Y41886313I-49810J-4358D01*
G01*
X22667428Y41659708D01*
G75*
G02*
X22613260Y41705160I-4358J49810D01*
G01*
G37*
G36*
G01*
X34311051Y40520181D02*
X34084446Y43110288D01*
G75*
G02*
X34129898Y43164456I49810J4358D01*
G01*
X36720005Y43391061D01*
G75*
G02*
X36774173Y43345609I4358J-49810D01*
G01*
X37000778Y40755502D01*
G75*
G02*
X36955326Y40701334I-49810J-4358D01*
G01*
X34365219Y40474729D01*
G75*
G02*
X34311051Y40520181I-4358J49810D01*
G01*
G37*
X22318127Y40775902D03*
X27107358Y43403309D03*
%TD*%
D12*
%TO.C,S10*%
X27625935Y37475951D03*
D13*
X22146864Y36996594D03*
X33105006Y37955308D03*
D15*
X22976153Y33254632D03*
X28140154Y31598402D03*
X32938100Y34126190D03*
X28140154Y31598402D03*
%TD*%
D12*
%TO.C,S11*%
X26144335Y54411253D03*
D13*
X31623406Y54890610D03*
X20665264Y53931896D03*
D14*
X30798474Y58582762D03*
X25625758Y60338611D03*
G36*
G01*
X21131660Y58640462D02*
X20905055Y61230569D01*
G75*
G02*
X20950507Y61284737I49810J4358D01*
G01*
X23540614Y61511342D01*
G75*
G02*
X23594782Y61465890I4358J-49810D01*
G01*
X23821387Y58875783D01*
G75*
G02*
X23775935Y58821615I-49810J-4358D01*
G01*
X21185828Y58595010D01*
G75*
G02*
X21131660Y58640462I-4358J49810D01*
G01*
G37*
G36*
G01*
X32829451Y57455483D02*
X32602846Y60045590D01*
G75*
G02*
X32648298Y60099758I49810J4358D01*
G01*
X35238405Y60326363D01*
G75*
G02*
X35292573Y60280911I4358J-49810D01*
G01*
X35519178Y57690804D01*
G75*
G02*
X35473726Y57636636I-49810J-4358D01*
G01*
X32883619Y57410031D01*
G75*
G02*
X32829451Y57455483I-4358J49810D01*
G01*
G37*
X20836527Y57711204D03*
X25625758Y60338611D03*
%TD*%
D12*
%TO.C,S12*%
X26144335Y54411253D03*
D13*
X20665264Y53931896D03*
X31623406Y54890610D03*
D15*
X21494553Y50189934D03*
X26658554Y48533704D03*
X31456500Y51061492D03*
X26658554Y48533704D03*
%TD*%
D12*
%TO.C,S13*%
X48226936Y27819253D03*
D13*
X53726936Y27819253D03*
X42726936Y27819253D03*
D14*
X53226936Y31569253D03*
X48226936Y33769253D03*
G36*
G01*
X43601936Y32469253D02*
X43601936Y35069253D01*
G75*
G02*
X43651936Y35119253I50000J0D01*
G01*
X46251936Y35119253D01*
G75*
G02*
X46301936Y35069253I0J-50000D01*
G01*
X46301936Y32469253D01*
G75*
G02*
X46251936Y32419253I-50000J0D01*
G01*
X43651936Y32419253D01*
G75*
G02*
X43601936Y32469253I0J50000D01*
G01*
G37*
G36*
G01*
X55151936Y30269253D02*
X55151936Y32869253D01*
G75*
G02*
X55201936Y32919253I50000J0D01*
G01*
X57801936Y32919253D01*
G75*
G02*
X57851936Y32869253I0J-50000D01*
G01*
X57851936Y30269253D01*
G75*
G02*
X57801936Y30219253I-50000J0D01*
G01*
X55201936Y30219253D01*
G75*
G02*
X55151936Y30269253I0J50000D01*
G01*
G37*
X43226936Y31569253D03*
X48226936Y33769253D03*
%TD*%
D12*
%TO.C,S14*%
X48226936Y27819253D03*
D13*
X42726936Y27819253D03*
X53726936Y27819253D03*
D15*
X43226936Y24019253D03*
X48226936Y21919253D03*
X53226936Y24019253D03*
X48226936Y21919253D03*
%TD*%
D12*
%TO.C,S15*%
X48226935Y44819253D03*
D13*
X53726935Y44819253D03*
X42726935Y44819253D03*
D14*
X53226935Y48569253D03*
X48226935Y50769253D03*
G36*
G01*
X43601935Y49469253D02*
X43601935Y52069253D01*
G75*
G02*
X43651935Y52119253I50000J0D01*
G01*
X46251935Y52119253D01*
G75*
G02*
X46301935Y52069253I0J-50000D01*
G01*
X46301935Y49469253D01*
G75*
G02*
X46251935Y49419253I-50000J0D01*
G01*
X43651935Y49419253D01*
G75*
G02*
X43601935Y49469253I0J50000D01*
G01*
G37*
G36*
G01*
X55151935Y47269253D02*
X55151935Y49869253D01*
G75*
G02*
X55201935Y49919253I50000J0D01*
G01*
X57801935Y49919253D01*
G75*
G02*
X57851935Y49869253I0J-50000D01*
G01*
X57851935Y47269253D01*
G75*
G02*
X57801935Y47219253I-50000J0D01*
G01*
X55201935Y47219253D01*
G75*
G02*
X55151935Y47269253I0J50000D01*
G01*
G37*
X43226935Y48569253D03*
X48226935Y50769253D03*
%TD*%
D12*
%TO.C,S16*%
X48226935Y44819253D03*
D13*
X42726935Y44819253D03*
X53726935Y44819253D03*
D15*
X43226935Y41019253D03*
X48226935Y38919253D03*
X53226935Y41019253D03*
X48226935Y38919253D03*
%TD*%
D12*
%TO.C,S17*%
X48226936Y61819251D03*
D13*
X53726936Y61819251D03*
X42726936Y61819251D03*
D14*
X53226936Y65569251D03*
X48226936Y67769251D03*
G36*
G01*
X43601936Y66469251D02*
X43601936Y69069251D01*
G75*
G02*
X43651936Y69119251I50000J0D01*
G01*
X46251936Y69119251D01*
G75*
G02*
X46301936Y69069251I0J-50000D01*
G01*
X46301936Y66469251D01*
G75*
G02*
X46251936Y66419251I-50000J0D01*
G01*
X43651936Y66419251D01*
G75*
G02*
X43601936Y66469251I0J50000D01*
G01*
G37*
G36*
G01*
X55151936Y64269251D02*
X55151936Y66869251D01*
G75*
G02*
X55201936Y66919251I50000J0D01*
G01*
X57801936Y66919251D01*
G75*
G02*
X57851936Y66869251I0J-50000D01*
G01*
X57851936Y64269251D01*
G75*
G02*
X57801936Y64219251I-50000J0D01*
G01*
X55201936Y64219251D01*
G75*
G02*
X55151936Y64269251I0J50000D01*
G01*
G37*
X43226936Y65569251D03*
X48226936Y67769251D03*
%TD*%
D12*
%TO.C,S18*%
X48226936Y61819251D03*
D13*
X42726936Y61819251D03*
X53726936Y61819251D03*
D15*
X43226936Y58019251D03*
X48226936Y55919251D03*
X53226936Y58019251D03*
X48226936Y55919251D03*
%TD*%
D12*
%TO.C,S19*%
X67508534Y22087852D03*
D13*
X72987605Y21608495D03*
X62029463Y22567209D03*
D14*
X72816342Y25387803D03*
X68027111Y28015210D03*
G36*
G01*
X63306407Y27123253D02*
X63533012Y29713360D01*
G75*
G02*
X63587180Y29758812I49810J-4358D01*
G01*
X66177287Y29532207D01*
G75*
G02*
X66222739Y29478039I-4358J-49810D01*
G01*
X65996134Y26887932D01*
G75*
G02*
X65941966Y26842480I-49810J4358D01*
G01*
X63351859Y27069085D01*
G75*
G02*
X63306407Y27123253I4358J49810D01*
G01*
G37*
G36*
G01*
X74620713Y23924975D02*
X74847318Y26515082D01*
G75*
G02*
X74901486Y26560534I49810J-4358D01*
G01*
X77491593Y26333929D01*
G75*
G02*
X77537045Y26279761I-4358J-49810D01*
G01*
X77310440Y23689654D01*
G75*
G02*
X77256272Y23644202I-49810J4358D01*
G01*
X74666165Y23870807D01*
G75*
G02*
X74620713Y23924975I4358J49810D01*
G01*
G37*
X62854395Y26259361D03*
X68027111Y28015210D03*
%TD*%
D12*
%TO.C,S20*%
X67508534Y22087852D03*
D13*
X62029463Y22567209D03*
X72987605Y21608495D03*
D15*
X62196369Y18738091D03*
X66994315Y16210303D03*
X72158316Y17866533D03*
X66994315Y16210303D03*
%TD*%
D12*
%TO.C,S21*%
X68990235Y39023152D03*
D13*
X74469306Y38543795D03*
X63511164Y39502509D03*
D14*
X74298043Y42323103D03*
X69508812Y44950510D03*
G36*
G01*
X64788108Y44058553D02*
X65014713Y46648660D01*
G75*
G02*
X65068881Y46694112I49810J-4358D01*
G01*
X67658988Y46467507D01*
G75*
G02*
X67704440Y46413339I-4358J-49810D01*
G01*
X67477835Y43823232D01*
G75*
G02*
X67423667Y43777780I-49810J4358D01*
G01*
X64833560Y44004385D01*
G75*
G02*
X64788108Y44058553I4358J49810D01*
G01*
G37*
G36*
G01*
X76102414Y40860275D02*
X76329019Y43450382D01*
G75*
G02*
X76383187Y43495834I49810J-4358D01*
G01*
X78973294Y43269229D01*
G75*
G02*
X79018746Y43215061I-4358J-49810D01*
G01*
X78792141Y40624954D01*
G75*
G02*
X78737973Y40579502I-49810J4358D01*
G01*
X76147866Y40806107D01*
G75*
G02*
X76102414Y40860275I4358J49810D01*
G01*
G37*
X64336096Y43194661D03*
X69508812Y44950510D03*
%TD*%
D12*
%TO.C,S22*%
X68990235Y39023152D03*
D13*
X63511164Y39502509D03*
X74469306Y38543795D03*
D15*
X63678070Y35673391D03*
X68476016Y33145603D03*
X73640017Y34801833D03*
X68476016Y33145603D03*
%TD*%
D12*
%TO.C,S23*%
X70471836Y55958552D03*
D13*
X75950907Y55479195D03*
X64992765Y56437909D03*
D14*
X75779644Y59258503D03*
X70990413Y61885910D03*
G36*
G01*
X66269709Y60993953D02*
X66496314Y63584060D01*
G75*
G02*
X66550482Y63629512I49810J-4358D01*
G01*
X69140589Y63402907D01*
G75*
G02*
X69186041Y63348739I-4358J-49810D01*
G01*
X68959436Y60758632D01*
G75*
G02*
X68905268Y60713180I-49810J4358D01*
G01*
X66315161Y60939785D01*
G75*
G02*
X66269709Y60993953I4358J49810D01*
G01*
G37*
G36*
G01*
X77584015Y57795675D02*
X77810620Y60385782D01*
G75*
G02*
X77864788Y60431234I49810J-4358D01*
G01*
X80454895Y60204629D01*
G75*
G02*
X80500347Y60150461I-4358J-49810D01*
G01*
X80273742Y57560354D01*
G75*
G02*
X80219574Y57514902I-49810J4358D01*
G01*
X77629467Y57741507D01*
G75*
G02*
X77584015Y57795675I4358J49810D01*
G01*
G37*
X65817697Y60130061D03*
X70990413Y61885910D03*
%TD*%
D12*
%TO.C,S24*%
X70471836Y55958552D03*
D13*
X64992765Y56437909D03*
X75950907Y55479195D03*
D15*
X65159671Y52608791D03*
X69957617Y50081003D03*
X75121618Y51737233D03*
X69957617Y50081003D03*
%TD*%
D12*
%TO.C,S25*%
X85193135Y17696552D03*
D13*
X90672206Y17217195D03*
X79714064Y18175909D03*
D14*
X90500943Y20996503D03*
X85711712Y23623910D03*
G36*
G01*
X80991008Y22731953D02*
X81217613Y25322060D01*
G75*
G02*
X81271781Y25367512I49810J-4358D01*
G01*
X83861888Y25140907D01*
G75*
G02*
X83907340Y25086739I-4358J-49810D01*
G01*
X83680735Y22496632D01*
G75*
G02*
X83626567Y22451180I-49810J4358D01*
G01*
X81036460Y22677785D01*
G75*
G02*
X80991008Y22731953I4358J49810D01*
G01*
G37*
G36*
G01*
X92305314Y19533675D02*
X92531919Y22123782D01*
G75*
G02*
X92586087Y22169234I49810J-4358D01*
G01*
X95176194Y21942629D01*
G75*
G02*
X95221646Y21888461I-4358J-49810D01*
G01*
X94995041Y19298354D01*
G75*
G02*
X94940873Y19252902I-49810J4358D01*
G01*
X92350766Y19479507D01*
G75*
G02*
X92305314Y19533675I4358J49810D01*
G01*
G37*
X80538996Y21868061D03*
X85711712Y23623910D03*
%TD*%
D12*
%TO.C,S26*%
X85193135Y17696552D03*
D13*
X79714064Y18175909D03*
X90672206Y17217195D03*
D15*
X79880970Y14346791D03*
X84678916Y11819003D03*
X89842917Y13475233D03*
X84678916Y11819003D03*
%TD*%
D12*
%TO.C,S27*%
X86674735Y34631852D03*
D13*
X92153806Y34152495D03*
X81195664Y35111209D03*
D14*
X91982543Y37931803D03*
X87193312Y40559210D03*
G36*
G01*
X82472608Y39667253D02*
X82699213Y42257360D01*
G75*
G02*
X82753381Y42302812I49810J-4358D01*
G01*
X85343488Y42076207D01*
G75*
G02*
X85388940Y42022039I-4358J-49810D01*
G01*
X85162335Y39431932D01*
G75*
G02*
X85108167Y39386480I-49810J4358D01*
G01*
X82518060Y39613085D01*
G75*
G02*
X82472608Y39667253I4358J49810D01*
G01*
G37*
G36*
G01*
X93786914Y36468975D02*
X94013519Y39059082D01*
G75*
G02*
X94067687Y39104534I49810J-4358D01*
G01*
X96657794Y38877929D01*
G75*
G02*
X96703246Y38823761I-4358J-49810D01*
G01*
X96476641Y36233654D01*
G75*
G02*
X96422473Y36188202I-49810J4358D01*
G01*
X93832366Y36414807D01*
G75*
G02*
X93786914Y36468975I4358J49810D01*
G01*
G37*
X82020596Y38803361D03*
X87193312Y40559210D03*
%TD*%
D12*
%TO.C,S28*%
X86674735Y34631852D03*
D13*
X81195664Y35111209D03*
X92153806Y34152495D03*
D15*
X81362570Y31282091D03*
X86160516Y28754303D03*
X91324517Y30410533D03*
X86160516Y28754303D03*
%TD*%
D12*
%TO.C,S29*%
X88156436Y51567152D03*
D13*
X93635507Y51087795D03*
X82677365Y52046509D03*
D14*
X93464244Y54867103D03*
X88675013Y57494510D03*
G36*
G01*
X83954309Y56602553D02*
X84180914Y59192660D01*
G75*
G02*
X84235082Y59238112I49810J-4358D01*
G01*
X86825189Y59011507D01*
G75*
G02*
X86870641Y58957339I-4358J-49810D01*
G01*
X86644036Y56367232D01*
G75*
G02*
X86589868Y56321780I-49810J4358D01*
G01*
X83999761Y56548385D01*
G75*
G02*
X83954309Y56602553I4358J49810D01*
G01*
G37*
G36*
G01*
X95268615Y53404275D02*
X95495220Y55994382D01*
G75*
G02*
X95549388Y56039834I49810J-4358D01*
G01*
X98139495Y55813229D01*
G75*
G02*
X98184947Y55759061I-4358J-49810D01*
G01*
X97958342Y53168954D01*
G75*
G02*
X97904174Y53123502I-49810J4358D01*
G01*
X95314067Y53350107D01*
G75*
G02*
X95268615Y53404275I4358J49810D01*
G01*
G37*
X83502297Y55738661D03*
X88675013Y57494510D03*
%TD*%
D12*
%TO.C,S30*%
X88156436Y51567152D03*
D13*
X82677365Y52046509D03*
X93635507Y51087795D03*
D15*
X82844271Y48217391D03*
X87642217Y45689603D03*
X92806218Y47345833D03*
X87642217Y45689603D03*
%TD*%
D12*
%TO.C,S31*%
X83101335Y-6212149D03*
D13*
X88269644Y-8093260D03*
X77933026Y-4331038D03*
D14*
X89082374Y-4398402D03*
X85136355Y-620978D03*
G36*
G01*
X80345650Y-260735D02*
X81234903Y2182466D01*
G75*
G02*
X81298989Y2212350I46985J-17101D01*
G01*
X83742190Y1323097D01*
G75*
G02*
X83772074Y1259011I-17101J-46985D01*
G01*
X82882821Y-1184190D01*
G75*
G02*
X82818735Y-1214074I-46985J17101D01*
G01*
X80375534Y-324821D01*
G75*
G02*
X80345650Y-260735I17101J46985D01*
G01*
G37*
G36*
G01*
X90446655Y-6278391D02*
X91335908Y-3835190D01*
G75*
G02*
X91399994Y-3805306I46985J-17101D01*
G01*
X93843195Y-4694559D01*
G75*
G02*
X93873079Y-4758645I-17101J-46985D01*
G01*
X92983826Y-7201846D01*
G75*
G02*
X92919740Y-7231730I-46985J17101D01*
G01*
X90476539Y-6342477D01*
G75*
G02*
X90446655Y-6278391I17101J46985D01*
G01*
G37*
X79685447Y-978201D03*
X85136355Y-620978D03*
%TD*%
D12*
%TO.C,S32*%
X83101335Y-6212149D03*
D13*
X77933026Y-4331038D03*
X88269644Y-8093260D03*
D15*
X77103195Y-8072880D03*
X81083416Y-11756335D03*
X86500122Y-11493082D03*
X81083416Y-11756335D03*
%TD*%
D12*
%TO.C,S33*%
X100853535Y-14490147D03*
D13*
X105616675Y-17240147D03*
X96090395Y-11740147D03*
D14*
X107058662Y-13742552D03*
X103828535Y-9337296D03*
G36*
G01*
X99173168Y-8150629D02*
X100473168Y-5898963D01*
G75*
G02*
X100541469Y-5880662I43301J-25000D01*
G01*
X102793135Y-7180662D01*
G75*
G02*
X102811436Y-7248963I-25000J-43301D01*
G01*
X101511436Y-9500629D01*
G75*
G02*
X101443135Y-9518930I-43301J25000D01*
G01*
X99191469Y-8218930D01*
G75*
G02*
X99173168Y-8150629I25000J43301D01*
G01*
G37*
G36*
G01*
X108075761Y-15830885D02*
X109375761Y-13579219D01*
G75*
G02*
X109444062Y-13560918I43301J-25000D01*
G01*
X111695728Y-14860918D01*
G75*
G02*
X111714029Y-14929219I-25000J-43301D01*
G01*
X110414029Y-17180885D01*
G75*
G02*
X110345728Y-17199186I-43301J25000D01*
G01*
X108094062Y-15899186D01*
G75*
G02*
X108075761Y-15830885I25000J43301D01*
G01*
G37*
X98398408Y-8742552D03*
X103828535Y-9337296D03*
%TD*%
D12*
%TO.C,S34*%
X100853535Y-14490147D03*
D13*
X96090395Y-11740147D03*
X105616675Y-17240147D03*
D15*
X94623408Y-15281044D03*
X97903535Y-19599697D03*
X103283662Y-20281044D03*
X97903535Y-19599697D03*
%TD*%
%TO.C,C1*%
G36*
G01*
X97695864Y40088369D02*
X99441795Y39935620D01*
G75*
G02*
X99487247Y39881452I-4358J-49810D01*
G01*
X99334498Y38135521D01*
G75*
G02*
X99280330Y38090069I-49810J4358D01*
G01*
X97534399Y38242818D01*
G75*
G02*
X97488947Y38296986I4358J49810D01*
G01*
X97641696Y40042917D01*
G75*
G02*
X97695864Y40088369I49810J-4358D01*
G01*
G37*
D16*
X98266722Y36558884D03*
X98045346Y34028550D03*
X97823970Y31498215D03*
X97602595Y28967881D03*
X97381219Y26437546D03*
X97159844Y23907211D03*
X96938468Y21376877D03*
X96717092Y18846542D03*
X96495717Y16316208D03*
X96274341Y13785873D03*
X96052966Y11255539D03*
X113670104Y37760965D03*
X113448729Y35230631D03*
X113227353Y32700296D03*
X113005978Y30169962D03*
X112784602Y27639627D03*
X112563226Y25109293D03*
X112341851Y22578958D03*
X112120475Y20048623D03*
X111899100Y17518289D03*
X111677724Y14987954D03*
X111456348Y12457620D03*
X111234973Y9927285D03*
%TD*%
M02*
