%TF.GenerationSoftware,KiCad,Pcbnew,(5.1.10-1-10_14)*%
%TF.CreationDate,2021-10-09T23:48:43+01:00*%
%TF.ProjectId,architeuthis_dux,61726368-6974-4657-9574-6869735f6475,VERSION_HERE*%
%TF.SameCoordinates,Original*%
%TF.FileFunction,Soldermask,Top*%
%TF.FilePolarity,Negative*%
%FSLAX46Y46*%
G04 Gerber Fmt 4.6, Leading zero omitted, Abs format (unit mm)*
G04 Created by KiCad (PCBNEW (5.1.10-1-10_14)) date 2021-10-09 23:48:43*
%MOMM*%
%LPD*%
G01*
G04 APERTURE LIST*
%ADD10C,1.600000*%
%ADD11C,1.000000*%
%ADD12C,3.529000*%
%ADD13C,1.801800*%
%ADD14C,3.100000*%
%ADD15C,2.132000*%
%ADD16C,1.852600*%
G04 APERTURE END LIST*
%TO.C, *%
G36*
G01*
X111351352Y1271351D02*
X109657821Y1419516D01*
G75*
G02*
X109612369Y1473684I4358J49810D01*
G01*
X109690810Y2370259D01*
G75*
G02*
X109744978Y2415711I49810J-4358D01*
G01*
X111438509Y2267546D01*
G75*
G02*
X111483961Y2213378I-4358J-49810D01*
G01*
X111405520Y1316803D01*
G75*
G02*
X111351352Y1271351I-49810J4358D01*
G01*
G37*
G36*
G01*
X111055022Y-2115711D02*
X109361491Y-1967546D01*
G75*
G02*
X109316039Y-1913378I4358J49810D01*
G01*
X109394480Y-1016803D01*
G75*
G02*
X109448648Y-971351I49810J-4358D01*
G01*
X111142179Y-1119516D01*
G75*
G02*
X111187631Y-1173684I-4358J-49810D01*
G01*
X111109190Y-2070259D01*
G75*
G02*
X111055022Y-2115711I-49810J4358D01*
G01*
G37*
%TD*%
D10*
%TO.C,-*%
X112200000Y39950000D03*
%TD*%
%TO.C,+*%
X100900000Y40750000D03*
%TD*%
%TO.C,REF\u002A\u002A*%
G36*
G01*
X110813262Y38827948D02*
X110757456Y38029897D01*
G75*
G02*
X110704090Y37983507I-49878J3488D01*
G01*
X109706526Y38053264D01*
G75*
G02*
X109660136Y38106630I3488J49878D01*
G01*
X109715942Y38904681D01*
G75*
G02*
X109769308Y38951071I49878J-3488D01*
G01*
X110766872Y38881314D01*
G75*
G02*
X110813262Y38827948I-3488J-49878D01*
G01*
G37*
G36*
G01*
X103531044Y39337170D02*
X103475238Y38539119D01*
G75*
G02*
X103421872Y38492729I-49878J3488D01*
G01*
X102424308Y38562486D01*
G75*
G02*
X102377918Y38615852I3488J49878D01*
G01*
X102433724Y39413903D01*
G75*
G02*
X102487090Y39460293I49878J-3488D01*
G01*
X103484654Y39390536D01*
G75*
G02*
X103531044Y39337170I-3488J-49878D01*
G01*
G37*
G36*
G01*
X103685206Y41541787D02*
X103629400Y40743736D01*
G75*
G02*
X103576034Y40697346I-49878J3488D01*
G01*
X102578470Y40767103D01*
G75*
G02*
X102532080Y40820469I3488J49878D01*
G01*
X102587886Y41618520D01*
G75*
G02*
X102641252Y41664910I49878J-3488D01*
G01*
X103638816Y41595153D01*
G75*
G02*
X103685206Y41541787I-3488J-49878D01*
G01*
G37*
G36*
G01*
X110967424Y41032564D02*
X110911618Y40234513D01*
G75*
G02*
X110858252Y40188123I-49878J3488D01*
G01*
X109860688Y40257880D01*
G75*
G02*
X109814298Y40311246I3488J49878D01*
G01*
X109870104Y41109297D01*
G75*
G02*
X109923470Y41155687I49878J-3488D01*
G01*
X110921034Y41085930D01*
G75*
G02*
X110967424Y41032564I-3488J-49878D01*
G01*
G37*
G36*
G01*
X104757072Y38950705D02*
X104652437Y37454359D01*
G75*
G02*
X104599071Y37407969I-49878J3488D01*
G01*
X103900776Y37456799D01*
G75*
G02*
X103854386Y37510165I3488J49878D01*
G01*
X103959021Y39006511D01*
G75*
G02*
X104012387Y39052901I49878J-3488D01*
G01*
X104710682Y39004071D01*
G75*
G02*
X104757072Y38950705I-3488J-49878D01*
G01*
G37*
G36*
G01*
X106253418Y38846071D02*
X106148783Y37349725D01*
G75*
G02*
X106095417Y37303335I-49878J3488D01*
G01*
X105397122Y37352165D01*
G75*
G02*
X105350732Y37405531I3488J49878D01*
G01*
X105455367Y38901877D01*
G75*
G02*
X105508733Y38948267I49878J-3488D01*
G01*
X106207028Y38899437D01*
G75*
G02*
X106253418Y38846071I-3488J-49878D01*
G01*
G37*
G36*
G01*
X109246110Y38636801D02*
X109141475Y37140455D01*
G75*
G02*
X109088109Y37094065I-49878J3488D01*
G01*
X108389814Y37142895D01*
G75*
G02*
X108343424Y37196261I3488J49878D01*
G01*
X108448059Y38692607D01*
G75*
G02*
X108501425Y38738997I49878J-3488D01*
G01*
X109199720Y38690167D01*
G75*
G02*
X109246110Y38636801I-3488J-49878D01*
G01*
G37*
D11*
X105176674Y39933831D03*
X108169366Y39724561D03*
%TD*%
D12*
%TO.C,S1*%
X13202636Y-1053449D03*
D13*
X18515228Y370056D03*
X7890044Y-2476954D03*
D14*
X17061694Y3862868D03*
X11662663Y4693810D03*
X7402435Y1274678D03*
X11662663Y4693810D03*
G36*
G01*
X13858535Y3936333D02*
X13185606Y6447740D01*
G75*
G02*
X13220961Y6508977I48296J12941D01*
G01*
X15732368Y7181906D01*
G75*
G02*
X15793605Y7146551I12941J-48296D01*
G01*
X16466534Y4635144D01*
G75*
G02*
X16431179Y4573907I-48296J-12941D01*
G01*
X13919772Y3900978D01*
G75*
G02*
X13858535Y3936333I-12941J48296D01*
G01*
G37*
G36*
G01*
X3271493Y-1178064D02*
X2598564Y1333343D01*
G75*
G02*
X2633919Y1394580I48296J12941D01*
G01*
X5145326Y2067509D01*
G75*
G02*
X5206563Y2032154I12941J-48296D01*
G01*
X5879492Y-479253D01*
G75*
G02*
X5844137Y-540490I-48296J-12941D01*
G01*
X3332730Y-1213419D01*
G75*
G02*
X3271493Y-1178064I-12941J48296D01*
G01*
G37*
%TD*%
D12*
%TO.C,S2*%
X13202636Y-1053449D03*
D13*
X7890044Y-2476954D03*
X18515228Y370056D03*
D15*
X9356519Y-6018062D03*
X14729668Y-6752411D03*
X19015778Y-3429872D03*
X14729668Y-6752411D03*
%TD*%
D12*
%TO.C,S3*%
X8802735Y15367351D03*
D13*
X14115327Y16790856D03*
X3490143Y13943846D03*
D14*
X12661793Y20283668D03*
X7262762Y21114610D03*
X3002534Y17695478D03*
X7262762Y21114610D03*
G36*
G01*
X9458634Y20357133D02*
X8785705Y22868540D01*
G75*
G02*
X8821060Y22929777I48296J12941D01*
G01*
X11332467Y23602706D01*
G75*
G02*
X11393704Y23567351I12941J-48296D01*
G01*
X12066633Y21055944D01*
G75*
G02*
X12031278Y20994707I-48296J-12941D01*
G01*
X9519871Y20321778D01*
G75*
G02*
X9458634Y20357133I-12941J48296D01*
G01*
G37*
G36*
G01*
X-1128408Y15242736D02*
X-1801337Y17754143D01*
G75*
G02*
X-1765982Y17815380I48296J12941D01*
G01*
X745425Y18488309D01*
G75*
G02*
X806662Y18452954I12941J-48296D01*
G01*
X1479591Y15941547D01*
G75*
G02*
X1444236Y15880310I-48296J-12941D01*
G01*
X-1067171Y15207381D01*
G75*
G02*
X-1128408Y15242736I-12941J48296D01*
G01*
G37*
%TD*%
D12*
%TO.C,S4*%
X8802735Y15367351D03*
D13*
X3490143Y13943846D03*
X14115327Y16790856D03*
D15*
X4956618Y10402738D03*
X10329767Y9668389D03*
X14615877Y12990928D03*
X10329767Y9668389D03*
%TD*%
D12*
%TO.C,S5*%
X4402735Y31788051D03*
D13*
X9715327Y33211556D03*
X-909857Y30364546D03*
D14*
X8261793Y36704368D03*
X2862762Y37535310D03*
X-1397466Y34116178D03*
X2862762Y37535310D03*
G36*
G01*
X5058634Y36777833D02*
X4385705Y39289240D01*
G75*
G02*
X4421060Y39350477I48296J12941D01*
G01*
X6932467Y40023406D01*
G75*
G02*
X6993704Y39988051I12941J-48296D01*
G01*
X7666633Y37476644D01*
G75*
G02*
X7631278Y37415407I-48296J-12941D01*
G01*
X5119871Y36742478D01*
G75*
G02*
X5058634Y36777833I-12941J48296D01*
G01*
G37*
G36*
G01*
X-5528408Y31663436D02*
X-6201337Y34174843D01*
G75*
G02*
X-6165982Y34236080I48296J12941D01*
G01*
X-3654575Y34909009D01*
G75*
G02*
X-3593338Y34873654I12941J-48296D01*
G01*
X-2920409Y32362247D01*
G75*
G02*
X-2955764Y32301010I-48296J-12941D01*
G01*
X-5467171Y31628081D01*
G75*
G02*
X-5528408Y31663436I-12941J48296D01*
G01*
G37*
%TD*%
D12*
%TO.C,S6*%
X4402735Y31788051D03*
D13*
X-909857Y30364546D03*
X9715327Y33211556D03*
D15*
X556618Y26823438D03*
X5929767Y26089089D03*
X10215877Y29411628D03*
X5929767Y26089089D03*
%TD*%
D12*
%TO.C,S7*%
X29107636Y20540652D03*
D13*
X34586707Y21020009D03*
X23628565Y20061295D03*
D14*
X33761775Y24712161D03*
X28589059Y26468010D03*
X23799828Y23840603D03*
X28589059Y26468010D03*
G36*
G01*
X30620036Y25340732D02*
X30393431Y27930839D01*
G75*
G02*
X30438883Y27985007I49810J4358D01*
G01*
X33028990Y28211612D01*
G75*
G02*
X33083158Y28166160I4358J-49810D01*
G01*
X33309763Y25576053D01*
G75*
G02*
X33264311Y25521885I-49810J-4358D01*
G01*
X30674204Y25295280D01*
G75*
G02*
X30620036Y25340732I-4358J49810D01*
G01*
G37*
G36*
G01*
X19305730Y22142454D02*
X19079125Y24732561D01*
G75*
G02*
X19124577Y24786729I49810J4358D01*
G01*
X21714684Y25013334D01*
G75*
G02*
X21768852Y24967882I4358J-49810D01*
G01*
X21995457Y22377775D01*
G75*
G02*
X21950005Y22323607I-49810J-4358D01*
G01*
X19359898Y22097002D01*
G75*
G02*
X19305730Y22142454I-4358J49810D01*
G01*
G37*
%TD*%
D12*
%TO.C,S8*%
X29107636Y20540652D03*
D13*
X23628565Y20061295D03*
X34586707Y21020009D03*
D15*
X24457854Y16319333D03*
X29621855Y14663103D03*
X34419801Y17190891D03*
X29621855Y14663103D03*
%TD*%
D12*
%TO.C,S9*%
X27625935Y37475951D03*
D13*
X33105006Y37955308D03*
X22146864Y36996594D03*
D14*
X32280074Y41647460D03*
X27107358Y43403309D03*
X22318127Y40775902D03*
X27107358Y43403309D03*
G36*
G01*
X29138335Y42276031D02*
X28911730Y44866138D01*
G75*
G02*
X28957182Y44920306I49810J4358D01*
G01*
X31547289Y45146911D01*
G75*
G02*
X31601457Y45101459I4358J-49810D01*
G01*
X31828062Y42511352D01*
G75*
G02*
X31782610Y42457184I-49810J-4358D01*
G01*
X29192503Y42230579D01*
G75*
G02*
X29138335Y42276031I-4358J49810D01*
G01*
G37*
G36*
G01*
X17824029Y39077753D02*
X17597424Y41667860D01*
G75*
G02*
X17642876Y41722028I49810J4358D01*
G01*
X20232983Y41948633D01*
G75*
G02*
X20287151Y41903181I4358J-49810D01*
G01*
X20513756Y39313074D01*
G75*
G02*
X20468304Y39258906I-49810J-4358D01*
G01*
X17878197Y39032301D01*
G75*
G02*
X17824029Y39077753I-4358J49810D01*
G01*
G37*
%TD*%
D12*
%TO.C,S10*%
X27625935Y37475951D03*
D13*
X22146864Y36996594D03*
X33105006Y37955308D03*
D15*
X22976153Y33254632D03*
X28140154Y31598402D03*
X32938100Y34126190D03*
X28140154Y31598402D03*
%TD*%
D12*
%TO.C,S11*%
X26144335Y54411253D03*
D13*
X31623406Y54890610D03*
X20665264Y53931896D03*
D14*
X30798474Y58582762D03*
X25625758Y60338611D03*
X20836527Y57711204D03*
X25625758Y60338611D03*
G36*
G01*
X27656735Y59211333D02*
X27430130Y61801440D01*
G75*
G02*
X27475582Y61855608I49810J4358D01*
G01*
X30065689Y62082213D01*
G75*
G02*
X30119857Y62036761I4358J-49810D01*
G01*
X30346462Y59446654D01*
G75*
G02*
X30301010Y59392486I-49810J-4358D01*
G01*
X27710903Y59165881D01*
G75*
G02*
X27656735Y59211333I-4358J49810D01*
G01*
G37*
G36*
G01*
X16342429Y56013055D02*
X16115824Y58603162D01*
G75*
G02*
X16161276Y58657330I49810J4358D01*
G01*
X18751383Y58883935D01*
G75*
G02*
X18805551Y58838483I4358J-49810D01*
G01*
X19032156Y56248376D01*
G75*
G02*
X18986704Y56194208I-49810J-4358D01*
G01*
X16396597Y55967603D01*
G75*
G02*
X16342429Y56013055I-4358J49810D01*
G01*
G37*
%TD*%
D12*
%TO.C,S12*%
X26144335Y54411253D03*
D13*
X20665264Y53931896D03*
X31623406Y54890610D03*
D15*
X21494553Y50189934D03*
X26658554Y48533704D03*
X31456500Y51061492D03*
X26658554Y48533704D03*
%TD*%
D12*
%TO.C,S13*%
X48226936Y27819253D03*
D13*
X53726936Y27819253D03*
X42726936Y27819253D03*
D14*
X53226936Y31569253D03*
X48226936Y33769253D03*
X43226936Y31569253D03*
X48226936Y33769253D03*
G36*
G01*
X50151936Y32469253D02*
X50151936Y35069253D01*
G75*
G02*
X50201936Y35119253I50000J0D01*
G01*
X52801936Y35119253D01*
G75*
G02*
X52851936Y35069253I0J-50000D01*
G01*
X52851936Y32469253D01*
G75*
G02*
X52801936Y32419253I-50000J0D01*
G01*
X50201936Y32419253D01*
G75*
G02*
X50151936Y32469253I0J50000D01*
G01*
G37*
G36*
G01*
X38601936Y30269253D02*
X38601936Y32869253D01*
G75*
G02*
X38651936Y32919253I50000J0D01*
G01*
X41251936Y32919253D01*
G75*
G02*
X41301936Y32869253I0J-50000D01*
G01*
X41301936Y30269253D01*
G75*
G02*
X41251936Y30219253I-50000J0D01*
G01*
X38651936Y30219253D01*
G75*
G02*
X38601936Y30269253I0J50000D01*
G01*
G37*
%TD*%
D12*
%TO.C,S14*%
X48226936Y27819253D03*
D13*
X42726936Y27819253D03*
X53726936Y27819253D03*
D15*
X43226936Y24019253D03*
X48226936Y21919253D03*
X53226936Y24019253D03*
X48226936Y21919253D03*
%TD*%
D12*
%TO.C,S15*%
X48226935Y44819253D03*
D13*
X53726935Y44819253D03*
X42726935Y44819253D03*
D14*
X53226935Y48569253D03*
X48226935Y50769253D03*
X43226935Y48569253D03*
X48226935Y50769253D03*
G36*
G01*
X50151935Y49469253D02*
X50151935Y52069253D01*
G75*
G02*
X50201935Y52119253I50000J0D01*
G01*
X52801935Y52119253D01*
G75*
G02*
X52851935Y52069253I0J-50000D01*
G01*
X52851935Y49469253D01*
G75*
G02*
X52801935Y49419253I-50000J0D01*
G01*
X50201935Y49419253D01*
G75*
G02*
X50151935Y49469253I0J50000D01*
G01*
G37*
G36*
G01*
X38601935Y47269253D02*
X38601935Y49869253D01*
G75*
G02*
X38651935Y49919253I50000J0D01*
G01*
X41251935Y49919253D01*
G75*
G02*
X41301935Y49869253I0J-50000D01*
G01*
X41301935Y47269253D01*
G75*
G02*
X41251935Y47219253I-50000J0D01*
G01*
X38651935Y47219253D01*
G75*
G02*
X38601935Y47269253I0J50000D01*
G01*
G37*
%TD*%
D12*
%TO.C,S16*%
X48226935Y44819253D03*
D13*
X42726935Y44819253D03*
X53726935Y44819253D03*
D15*
X43226935Y41019253D03*
X48226935Y38919253D03*
X53226935Y41019253D03*
X48226935Y38919253D03*
%TD*%
D12*
%TO.C,S17*%
X48226936Y61819251D03*
D13*
X53726936Y61819251D03*
X42726936Y61819251D03*
D14*
X53226936Y65569251D03*
X48226936Y67769251D03*
X43226936Y65569251D03*
X48226936Y67769251D03*
G36*
G01*
X50151936Y66469251D02*
X50151936Y69069251D01*
G75*
G02*
X50201936Y69119251I50000J0D01*
G01*
X52801936Y69119251D01*
G75*
G02*
X52851936Y69069251I0J-50000D01*
G01*
X52851936Y66469251D01*
G75*
G02*
X52801936Y66419251I-50000J0D01*
G01*
X50201936Y66419251D01*
G75*
G02*
X50151936Y66469251I0J50000D01*
G01*
G37*
G36*
G01*
X38601936Y64269251D02*
X38601936Y66869251D01*
G75*
G02*
X38651936Y66919251I50000J0D01*
G01*
X41251936Y66919251D01*
G75*
G02*
X41301936Y66869251I0J-50000D01*
G01*
X41301936Y64269251D01*
G75*
G02*
X41251936Y64219251I-50000J0D01*
G01*
X38651936Y64219251D01*
G75*
G02*
X38601936Y64269251I0J50000D01*
G01*
G37*
%TD*%
D12*
%TO.C,S18*%
X48226936Y61819251D03*
D13*
X42726936Y61819251D03*
X53726936Y61819251D03*
D15*
X43226936Y58019251D03*
X48226936Y55919251D03*
X53226936Y58019251D03*
X48226936Y55919251D03*
%TD*%
D12*
%TO.C,S19*%
X67508534Y22087852D03*
D13*
X72987605Y21608495D03*
X62029463Y22567209D03*
D14*
X72816342Y25387803D03*
X68027111Y28015210D03*
X62854395Y26259361D03*
X68027111Y28015210D03*
G36*
G01*
X69831482Y26552382D02*
X70058087Y29142489D01*
G75*
G02*
X70112255Y29187941I49810J-4358D01*
G01*
X72702362Y28961336D01*
G75*
G02*
X72747814Y28907168I-4358J-49810D01*
G01*
X72521209Y26317061D01*
G75*
G02*
X72467041Y26271609I-49810J4358D01*
G01*
X69876934Y26498214D01*
G75*
G02*
X69831482Y26552382I4358J49810D01*
G01*
G37*
G36*
G01*
X58133691Y25367403D02*
X58360296Y27957510D01*
G75*
G02*
X58414464Y28002962I49810J-4358D01*
G01*
X61004571Y27776357D01*
G75*
G02*
X61050023Y27722189I-4358J-49810D01*
G01*
X60823418Y25132082D01*
G75*
G02*
X60769250Y25086630I-49810J4358D01*
G01*
X58179143Y25313235D01*
G75*
G02*
X58133691Y25367403I4358J49810D01*
G01*
G37*
%TD*%
D12*
%TO.C,S20*%
X67508534Y22087852D03*
D13*
X62029463Y22567209D03*
X72987605Y21608495D03*
D15*
X62196369Y18738091D03*
X66994315Y16210303D03*
X72158316Y17866533D03*
X66994315Y16210303D03*
%TD*%
D12*
%TO.C,S21*%
X68990235Y39023152D03*
D13*
X74469306Y38543795D03*
X63511164Y39502509D03*
D14*
X74298043Y42323103D03*
X69508812Y44950510D03*
X64336096Y43194661D03*
X69508812Y44950510D03*
G36*
G01*
X71313183Y43487682D02*
X71539788Y46077789D01*
G75*
G02*
X71593956Y46123241I49810J-4358D01*
G01*
X74184063Y45896636D01*
G75*
G02*
X74229515Y45842468I-4358J-49810D01*
G01*
X74002910Y43252361D01*
G75*
G02*
X73948742Y43206909I-49810J4358D01*
G01*
X71358635Y43433514D01*
G75*
G02*
X71313183Y43487682I4358J49810D01*
G01*
G37*
G36*
G01*
X59615392Y42302703D02*
X59841997Y44892810D01*
G75*
G02*
X59896165Y44938262I49810J-4358D01*
G01*
X62486272Y44711657D01*
G75*
G02*
X62531724Y44657489I-4358J-49810D01*
G01*
X62305119Y42067382D01*
G75*
G02*
X62250951Y42021930I-49810J4358D01*
G01*
X59660844Y42248535D01*
G75*
G02*
X59615392Y42302703I4358J49810D01*
G01*
G37*
%TD*%
D12*
%TO.C,S22*%
X68990235Y39023152D03*
D13*
X63511164Y39502509D03*
X74469306Y38543795D03*
D15*
X63678070Y35673391D03*
X68476016Y33145603D03*
X73640017Y34801833D03*
X68476016Y33145603D03*
%TD*%
D12*
%TO.C,S23*%
X70471836Y55958552D03*
D13*
X75950907Y55479195D03*
X64992765Y56437909D03*
D14*
X75779644Y59258503D03*
X70990413Y61885910D03*
X65817697Y60130061D03*
X70990413Y61885910D03*
G36*
G01*
X72794784Y60423082D02*
X73021389Y63013189D01*
G75*
G02*
X73075557Y63058641I49810J-4358D01*
G01*
X75665664Y62832036D01*
G75*
G02*
X75711116Y62777868I-4358J-49810D01*
G01*
X75484511Y60187761D01*
G75*
G02*
X75430343Y60142309I-49810J4358D01*
G01*
X72840236Y60368914D01*
G75*
G02*
X72794784Y60423082I4358J49810D01*
G01*
G37*
G36*
G01*
X61096993Y59238103D02*
X61323598Y61828210D01*
G75*
G02*
X61377766Y61873662I49810J-4358D01*
G01*
X63967873Y61647057D01*
G75*
G02*
X64013325Y61592889I-4358J-49810D01*
G01*
X63786720Y59002782D01*
G75*
G02*
X63732552Y58957330I-49810J4358D01*
G01*
X61142445Y59183935D01*
G75*
G02*
X61096993Y59238103I4358J49810D01*
G01*
G37*
%TD*%
D12*
%TO.C,S24*%
X70471836Y55958552D03*
D13*
X64992765Y56437909D03*
X75950907Y55479195D03*
D15*
X65159671Y52608791D03*
X69957617Y50081003D03*
X75121618Y51737233D03*
X69957617Y50081003D03*
%TD*%
D12*
%TO.C,S25*%
X85193135Y17696552D03*
D13*
X90672206Y17217195D03*
X79714064Y18175909D03*
D14*
X90500943Y20996503D03*
X85711712Y23623910D03*
X80538996Y21868061D03*
X85711712Y23623910D03*
G36*
G01*
X87516083Y22161082D02*
X87742688Y24751189D01*
G75*
G02*
X87796856Y24796641I49810J-4358D01*
G01*
X90386963Y24570036D01*
G75*
G02*
X90432415Y24515868I-4358J-49810D01*
G01*
X90205810Y21925761D01*
G75*
G02*
X90151642Y21880309I-49810J4358D01*
G01*
X87561535Y22106914D01*
G75*
G02*
X87516083Y22161082I4358J49810D01*
G01*
G37*
G36*
G01*
X75818292Y20976103D02*
X76044897Y23566210D01*
G75*
G02*
X76099065Y23611662I49810J-4358D01*
G01*
X78689172Y23385057D01*
G75*
G02*
X78734624Y23330889I-4358J-49810D01*
G01*
X78508019Y20740782D01*
G75*
G02*
X78453851Y20695330I-49810J4358D01*
G01*
X75863744Y20921935D01*
G75*
G02*
X75818292Y20976103I4358J49810D01*
G01*
G37*
%TD*%
D12*
%TO.C,S26*%
X85193135Y17696552D03*
D13*
X79714064Y18175909D03*
X90672206Y17217195D03*
D15*
X79880970Y14346791D03*
X84678916Y11819003D03*
X89842917Y13475233D03*
X84678916Y11819003D03*
%TD*%
D12*
%TO.C,S27*%
X86674735Y34631852D03*
D13*
X92153806Y34152495D03*
X81195664Y35111209D03*
D14*
X91982543Y37931803D03*
X87193312Y40559210D03*
X82020596Y38803361D03*
X87193312Y40559210D03*
G36*
G01*
X88997683Y39096382D02*
X89224288Y41686489D01*
G75*
G02*
X89278456Y41731941I49810J-4358D01*
G01*
X91868563Y41505336D01*
G75*
G02*
X91914015Y41451168I-4358J-49810D01*
G01*
X91687410Y38861061D01*
G75*
G02*
X91633242Y38815609I-49810J4358D01*
G01*
X89043135Y39042214D01*
G75*
G02*
X88997683Y39096382I4358J49810D01*
G01*
G37*
G36*
G01*
X77299892Y37911403D02*
X77526497Y40501510D01*
G75*
G02*
X77580665Y40546962I49810J-4358D01*
G01*
X80170772Y40320357D01*
G75*
G02*
X80216224Y40266189I-4358J-49810D01*
G01*
X79989619Y37676082D01*
G75*
G02*
X79935451Y37630630I-49810J4358D01*
G01*
X77345344Y37857235D01*
G75*
G02*
X77299892Y37911403I4358J49810D01*
G01*
G37*
%TD*%
D12*
%TO.C,S28*%
X86674735Y34631852D03*
D13*
X81195664Y35111209D03*
X92153806Y34152495D03*
D15*
X81362570Y31282091D03*
X86160516Y28754303D03*
X91324517Y30410533D03*
X86160516Y28754303D03*
%TD*%
D12*
%TO.C,S29*%
X88156436Y51567152D03*
D13*
X93635507Y51087795D03*
X82677365Y52046509D03*
D14*
X93464244Y54867103D03*
X88675013Y57494510D03*
X83502297Y55738661D03*
X88675013Y57494510D03*
G36*
G01*
X90479384Y56031682D02*
X90705989Y58621789D01*
G75*
G02*
X90760157Y58667241I49810J-4358D01*
G01*
X93350264Y58440636D01*
G75*
G02*
X93395716Y58386468I-4358J-49810D01*
G01*
X93169111Y55796361D01*
G75*
G02*
X93114943Y55750909I-49810J4358D01*
G01*
X90524836Y55977514D01*
G75*
G02*
X90479384Y56031682I4358J49810D01*
G01*
G37*
G36*
G01*
X78781593Y54846703D02*
X79008198Y57436810D01*
G75*
G02*
X79062366Y57482262I49810J-4358D01*
G01*
X81652473Y57255657D01*
G75*
G02*
X81697925Y57201489I-4358J-49810D01*
G01*
X81471320Y54611382D01*
G75*
G02*
X81417152Y54565930I-49810J4358D01*
G01*
X78827045Y54792535D01*
G75*
G02*
X78781593Y54846703I4358J49810D01*
G01*
G37*
%TD*%
D12*
%TO.C,S30*%
X88156436Y51567152D03*
D13*
X82677365Y52046509D03*
X93635507Y51087795D03*
D15*
X82844271Y48217391D03*
X87642217Y45689603D03*
X92806218Y47345833D03*
X87642217Y45689603D03*
%TD*%
D12*
%TO.C,S31*%
X83101335Y-6212149D03*
D13*
X88269644Y-8093260D03*
X77933026Y-4331038D03*
D14*
X89082374Y-4398402D03*
X85136355Y-620978D03*
X79685447Y-978201D03*
X85136355Y-620978D03*
G36*
G01*
X86500636Y-2500967D02*
X87389889Y-57766D01*
G75*
G02*
X87453975Y-27882I46985J-17101D01*
G01*
X89897176Y-917135D01*
G75*
G02*
X89927060Y-981221I-17101J-46985D01*
G01*
X89037807Y-3424422D01*
G75*
G02*
X88973721Y-3454306I-46985J17101D01*
G01*
X86530520Y-2565053D01*
G75*
G02*
X86500636Y-2500967I17101J46985D01*
G01*
G37*
G36*
G01*
X74894742Y-617958D02*
X75783995Y1825243D01*
G75*
G02*
X75848081Y1855127I46985J-17101D01*
G01*
X78291282Y965874D01*
G75*
G02*
X78321166Y901788I-17101J-46985D01*
G01*
X77431913Y-1541413D01*
G75*
G02*
X77367827Y-1571297I-46985J17101D01*
G01*
X74924626Y-682044D01*
G75*
G02*
X74894742Y-617958I17101J46985D01*
G01*
G37*
%TD*%
D12*
%TO.C,S32*%
X83101335Y-6212149D03*
D13*
X77933026Y-4331038D03*
X88269644Y-8093260D03*
D15*
X77103195Y-8072880D03*
X81083416Y-11756335D03*
X86500122Y-11493082D03*
X81083416Y-11756335D03*
%TD*%
D12*
%TO.C,S33*%
X100853535Y-14490147D03*
D13*
X105616675Y-17240147D03*
X96090395Y-11740147D03*
D14*
X107058662Y-13742552D03*
X103828535Y-9337296D03*
X98398408Y-8742552D03*
X103828535Y-9337296D03*
G36*
G01*
X104845634Y-11425629D02*
X106145634Y-9173963D01*
G75*
G02*
X106213935Y-9155662I43301J-25000D01*
G01*
X108465601Y-10455662D01*
G75*
G02*
X108483902Y-10523963I-25000J-43301D01*
G01*
X107183902Y-12775629D01*
G75*
G02*
X107115601Y-12793930I-43301J25000D01*
G01*
X104863935Y-11493930D01*
G75*
G02*
X104845634Y-11425629I25000J43301D01*
G01*
G37*
G36*
G01*
X93743041Y-7555885D02*
X95043041Y-5304219D01*
G75*
G02*
X95111342Y-5285918I43301J-25000D01*
G01*
X97363008Y-6585918D01*
G75*
G02*
X97381309Y-6654219I-25000J-43301D01*
G01*
X96081309Y-8905885D01*
G75*
G02*
X96013008Y-8924186I-43301J25000D01*
G01*
X93761342Y-7624186D01*
G75*
G02*
X93743041Y-7555885I25000J43301D01*
G01*
G37*
%TD*%
D12*
%TO.C,S34*%
X100853535Y-14490147D03*
D13*
X96090395Y-11740147D03*
X105616675Y-17240147D03*
D15*
X94623408Y-15281044D03*
X97903535Y-19599697D03*
X103283662Y-20281044D03*
X97903535Y-19599697D03*
%TD*%
%TO.C,C1*%
G36*
G01*
X97695864Y40088369D02*
X99441795Y39935620D01*
G75*
G02*
X99487247Y39881452I-4358J-49810D01*
G01*
X99334498Y38135521D01*
G75*
G02*
X99280330Y38090069I-49810J4358D01*
G01*
X97534399Y38242818D01*
G75*
G02*
X97488947Y38296986I4358J49810D01*
G01*
X97641696Y40042917D01*
G75*
G02*
X97695864Y40088369I49810J-4358D01*
G01*
G37*
D16*
X98266722Y36558884D03*
X98045346Y34028550D03*
X97823970Y31498215D03*
X97602595Y28967881D03*
X97381219Y26437546D03*
X97159844Y23907211D03*
X96938468Y21376877D03*
X96717092Y18846542D03*
X96495717Y16316208D03*
X96274341Y13785873D03*
X96052966Y11255539D03*
X113670104Y37760965D03*
X113448729Y35230631D03*
X113227353Y32700296D03*
X113005978Y30169962D03*
X112784602Y27639627D03*
X112563226Y25109293D03*
X112341851Y22578958D03*
X112120475Y20048623D03*
X111899100Y17518289D03*
X111677724Y14987954D03*
X111456348Y12457620D03*
X111234973Y9927285D03*
%TD*%
M02*
