M48
; DRILL file {KiCad (5.1.10-1-10_14)} date Saturday, October 09, 2021 at 11:48:38 PM
; FORMAT={-:-/ absolute / inch / decimal}
; #@! TF.CreationDate,2021-10-09T23:48:38+01:00
; #@! TF.GenerationSoftware,Kicad,Pcbnew,(5.1.10-1-10_14)
; #@! TF.FileFunction,NonPlated,1,2,NPTH
FMAT,2
INCH
T1C0.0354
T2C0.0670
T3C0.1181
T4C0.1350
%
G90
G05
T1
X4.1408Y1.5722
X4.2586Y1.564
T2
X-0.0358Y1.1955
X-0.0358Y1.1955
X0.1374Y0.549
X0.1374Y0.549
X0.3106Y-0.0975
X0.3106Y-0.0975
X0.3825Y1.3075
X0.3825Y1.3075
X0.5557Y0.6611
X0.5557Y0.6611
X0.7289Y0.0146
X0.7289Y0.0146
X0.8136Y2.1233
X0.8136Y2.1233
X0.8719Y1.4566
X0.8719Y1.4566
X0.9303Y0.7898
X0.9303Y0.7898
X1.245Y2.161
X1.245Y2.161
X1.3033Y1.4943
X1.3033Y1.4943
X1.3617Y0.8276
X1.3617Y0.8276
X1.6822Y1.7645
X1.6822Y1.7645
X1.6822Y2.4338
X1.6822Y2.4338
X1.6822Y1.0952
X1.6822Y1.0952
X2.1152Y1.7645
X2.1152Y1.7645
X2.1152Y2.4338
X2.1152Y2.4338
X2.1152Y1.0952
X2.1152Y1.0952
X2.4421Y0.8885
X2.4421Y0.8885
X2.5004Y1.5552
X2.5004Y1.5552
X2.5588Y2.222
X2.5588Y2.222
X2.8735Y0.8507
X2.8735Y0.8507
X2.9319Y1.5175
X2.9319Y1.5175
X2.9902Y2.1842
X2.9902Y2.1842
X3.0682Y-0.1705
X3.0682Y-0.1705
X3.1383Y0.7156
X3.1383Y0.7156
X3.1967Y1.3823
X3.1967Y1.3823
X3.255Y2.0491
X3.255Y2.0491
X3.4752Y-0.3186
X3.4752Y-0.3186
X3.5698Y0.6778
X3.5698Y0.6778
X3.6281Y1.3446
X3.6281Y1.3446
X3.6864Y2.0113
X3.6864Y2.0113
X3.7831Y-0.4622
X3.7831Y-0.4622
X4.1581Y-0.6787
X4.1581Y-0.6787
T3
X-0.055Y1.3432
X0.1127Y1.4778
X0.1127Y1.4778
X0.1182Y0.6967
X0.2859Y0.8313
X0.2859Y0.8313
X0.2914Y0.0502
X0.3253Y1.4451
X0.4592Y0.1848
X0.4592Y0.1848
X0.4985Y0.7986
X0.6717Y0.1521
X0.8203Y2.2721
X0.8787Y1.6054
X0.937Y0.9386
X1.0089Y2.3755
X1.0089Y2.3755
X1.0672Y1.7088
X1.0672Y1.7088
X1.1256Y1.042
X1.1256Y1.042
X1.2125Y2.3064
X1.2709Y1.6397
X1.3292Y0.9729
X1.7018Y1.9122
X1.7018Y2.5815
X1.7018Y1.2429
X1.8987Y1.9988
X1.8987Y1.9988
X1.8987Y2.6681
X1.8987Y2.6681
X1.8987Y1.3295
X1.8987Y1.3295
X2.0955Y1.9122
X2.0955Y2.5815
X2.0955Y1.2429
X2.4746Y1.0338
X2.5329Y1.7006
X2.5912Y2.3673
X2.6782Y1.103
X2.6782Y1.103
X2.7366Y1.7697
X2.7366Y1.7697
X2.7949Y2.4365
X2.7949Y2.4365
X2.8668Y0.9995
X2.9251Y1.6663
X2.9835Y2.333
X3.1372Y-0.0385
X3.1708Y0.8609
X3.2292Y1.5277
X3.2875Y2.1944
X3.3518Y-0.0244
X3.3518Y-0.0244
X3.3745Y0.9301
X3.3745Y0.9301
X3.4328Y1.5968
X3.4328Y1.5968
X3.4911Y2.2636
X3.4911Y2.2636
X3.5072Y-0.1732
X3.563Y0.8266
X3.6214Y1.4934
X3.6797Y2.1601
X3.874Y-0.3442
X4.0877Y-0.3676
X4.0877Y-0.3676
X4.2149Y-0.541
T4
X0.1733Y1.2515
X0.1733Y1.2515
X0.3466Y0.605
X0.3466Y0.605
X0.5198Y-0.0415
X0.5198Y-0.0415
X1.0293Y2.1422
X1.0293Y2.1422
X1.0876Y1.4754
X1.0876Y1.4754
X1.146Y0.8087
X1.146Y0.8087
X1.8987Y1.7645
X1.8987Y1.7645
X1.8987Y2.4338
X1.8987Y2.4338
X1.8987Y1.0952
X1.8987Y1.0952
X2.6578Y0.8696
X2.6578Y0.8696
X2.7162Y1.5363
X2.7162Y1.5363
X2.7745Y2.2031
X2.7745Y2.2031
X3.2717Y-0.2446
X3.2717Y-0.2446
X3.3541Y0.6967
X3.3541Y0.6967
X3.4124Y1.3635
X3.4124Y1.3635
X3.4707Y2.0302
X3.4707Y2.0302
X3.9706Y-0.5705
X3.9706Y-0.5705
T0
M30
