M48
; DRILL file {KiCad (5.1.10-1-10_14)} date Saturday, October 09, 2021 at 10:38:10 PM
; FORMAT={-:-/ absolute / inch / decimal}
; #@! TF.CreationDate,2021-10-09T22:38:10+01:00
; #@! TF.GenerationSoftware,Kicad,Pcbnew,(5.1.10-1-10_14)
; #@! TF.FileFunction,Plated,1,2,PTH
FMAT,2
INCH
T1C0.0157
T2C0.0276
T3C0.0430
T4C0.0500
%
G90
G05
T1
X4.0216Y-0.1417
X4.126Y1.3189
X4.3406Y-0.1417
X4.3878Y0.2087
T2
X3.9724Y1.6043
X4.4173Y1.5728
T3
X3.7816Y0.4431
X3.7903Y0.5428
X3.799Y0.6424
X3.8078Y0.742
X3.8165Y0.8416
X3.8252Y0.9412
X3.8339Y1.0408
X3.8426Y1.1405
X3.8513Y1.2401
X3.8601Y1.3397
X3.8688Y1.4393
X3.8775Y1.5389
X4.3793Y0.3908
X4.388Y0.4905
X4.3968Y0.5901
X4.4055Y0.6897
X4.4142Y0.7893
X4.4229Y0.8889
X4.4316Y0.9886
X4.4403Y1.0882
X4.4491Y1.1878
X4.4578Y1.2874
X4.4665Y1.387
X4.4752Y1.4867
T4
X0.0219Y1.056
X0.1951Y0.4096
X0.2335Y1.0271
X0.2335Y1.0271
X0.3684Y-0.2369
X0.4022Y1.1579
X0.4067Y0.3806
X0.4067Y0.3806
X0.5754Y0.5115
X0.5799Y-0.2658
X0.5799Y-0.2658
X0.7487Y-0.135
X0.8462Y1.976
X0.9046Y1.3092
X0.9629Y0.6425
X1.0495Y1.9108
X1.0495Y1.9108
X1.1079Y1.244
X1.1079Y1.244
X1.1662Y0.5773
X1.1662Y0.5773
X1.2384Y2.0103
X1.2968Y1.3436
X1.3551Y0.6768
X1.7018Y1.6149
X1.7018Y2.2842
X1.7018Y0.9456
X1.8987Y1.5323
X1.8987Y1.5323
X1.8987Y2.2015
X1.8987Y2.2015
X1.8987Y0.863
X1.8987Y0.863
X2.0955Y1.6149
X2.0955Y2.2842
X2.0955Y0.9456
X2.4487Y0.7377
X2.507Y1.4045
X2.5653Y2.0712
X2.6376Y0.6382
X2.6376Y0.6382
X2.6959Y1.3049
X2.6959Y1.3049
X2.7542Y1.9717
X2.7542Y1.9717
X2.8409Y0.7034
X2.8992Y1.3702
X2.9575Y2.0369
X3.0356Y-0.3178
X3.1449Y0.5648
X3.1923Y-0.4628
X3.1923Y-0.4628
X3.2033Y1.2316
X3.2616Y1.8983
X3.3338Y0.4653
X3.3338Y0.4653
X3.3921Y1.1321
X3.3921Y1.1321
X3.4055Y-0.4525
X3.4505Y1.7988
X3.4505Y1.7988
X3.5371Y0.5305
X3.5955Y1.1973
X3.6538Y1.864
X3.7253Y-0.6016
X3.8545Y-0.7716
X3.8545Y-0.7716
X4.0663Y-0.7985
T0
M30
